<svg width="32" height="32" viewBox="0 0 32 32" fill="none" xmlns="http://www.w3.org/2000/svg">
<ellipse cx="16" cy="16" rx="5.33333" ry="13.3333" stroke="#0088E7" stroke-width="2"/>
<path d="M29.3282 15.6274C26.925 17.6021 21.8598 18.963 16 18.963C10.1401 18.963 5.07487 17.6021 2.67173 15.6274M29.3282 15.6274C29.1309 8.43588 23.2391 2.66667 16 2.66667C8.76077 2.66667 2.86906 8.43588 2.67173 15.6274M29.3282 15.6274C29.3316 15.7512 29.3333 15.8754 29.3333 16C29.3333 23.3638 23.3638 29.3333 16 29.3333C8.63616 29.3333 2.66663 23.3638 2.66663 16C2.66663 15.8754 2.66834 15.7512 2.67173 15.6274" stroke="#0088E7" stroke-width="2"/>
</svg>
