<svg width="60" height="60" viewBox="0 0 60 60" fill="none" xmlns="http://www.w3.org/2000/svg">
<g clip-path="url(#clip0_620_275)">
<path fill-rule="evenodd" clip-rule="evenodd" d="M-95.7394 -58.0013H155.679V117.982H-95.7394V-58.0013Z" fill="white"/>
<path fill-rule="evenodd" clip-rule="evenodd" d="M29.9693 0.0282936C46.5123 0.0282936 59.9314 13.4428 59.9314 29.9905C59.9314 46.5381 46.5123 59.9526 29.9693 59.9526C13.4279 59.9526 0.00794983 46.5381 0.00794983 29.9905C0.00794983 13.4428 13.4279 0.0282936 29.9693 0.0282936Z" fill="#0088E7"/>
<path fill-rule="evenodd" clip-rule="evenodd" d="M29.9694 2.9566C44.8955 2.9566 57.0031 15.0599 57.0031 29.9903C57.0031 44.9206 44.8955 57.024 29.9694 57.024C15.0447 57.024 2.93645 44.9206 2.93645 29.9903C2.93645 15.0599 15.0447 2.9566 29.9694 2.9566Z" fill="white"/>
<path d="M19.139 37.762H12.0767V17.8398H19.1974C21.2013 17.8398 22.9263 18.2386 24.3725 19.0363C25.8186 19.8275 26.9308 20.9656 27.709 22.4507C28.4937 23.9358 28.8861 25.7127 28.8861 27.7814C28.8861 29.8567 28.4937 31.6401 27.709 33.1316C26.9308 34.6232 25.8121 35.7678 24.353 36.5655C22.9003 37.3631 21.1623 37.762 19.139 37.762ZM16.2888 34.153H18.9639C20.209 34.153 21.2564 33.9325 22.1059 33.4916C22.962 33.0441 23.604 32.3534 24.032 31.4196C24.4665 30.4792 24.6837 29.2665 24.6837 27.7814C24.6837 26.3093 24.4665 25.1063 24.032 24.1725C23.604 23.2386 22.9652 22.5512 22.1156 22.1102C21.2661 21.6692 20.2188 21.4488 18.9736 21.4488H16.2888V34.153ZM34.3165 37.762H29.8029L36.6803 17.8398H42.1084L48.9761 37.762H44.4624L39.4722 22.3923H39.3165L34.3165 37.762ZM34.0344 29.9312H44.6959V33.2192H34.0344V29.9312Z" fill="#0088E7"/>
</g>
<defs>
<clipPath id="clip0_620_275">
<rect width="60" height="60" rx="30" fill="white"/>
</clipPath>
</defs>
</svg>
