<svg width="33" height="32" viewBox="0 0 33 32" fill="none" xmlns="http://www.w3.org/2000/svg">
<path d="M16.2128 15.4933C16.1728 15.4933 16.1461 15.4933 16.1061 15.4933C16.0395 15.48 15.9461 15.48 15.8661 15.4933C11.9995 15.3733 9.07947 12.3333 9.07947 8.58666C9.07947 4.77333 12.1861 1.66666 15.9995 1.66666C19.8128 1.66666 22.9195 4.77333 22.9195 8.58666C22.9061 12.3333 19.9728 15.3733 16.2528 15.4933C16.2395 15.4933 16.2261 15.4933 16.2128 15.4933ZM15.9995 3.66666C13.2928 3.66666 11.0795 5.88 11.0795 8.58666C11.0795 11.2533 13.1595 13.4 15.8128 13.4933C15.8795 13.48 16.0661 13.48 16.2395 13.4933C18.8528 13.3733 20.9061 11.2267 20.9195 8.58666C20.9195 5.88 18.7061 3.66666 15.9995 3.66666Z" fill="white"/>
<path d="M8.99948 28.0667C10.9861 29.4 13.6128 30.0667 16.2261 30.0667C18.5618 30.0667 20.1364 29.8309 22.5526 28.5637C23.045 28.3055 23.1907 27.675 22.8814 27.213C22.5859 26.7715 21.99 26.6576 21.5173 26.9002C18.154 28.626 13.1634 28.4638 10.1061 26.4133C8.83948 25.5733 8.13281 24.48 8.13281 23.3467C8.13281 22.2 8.82615 21.1067 10.1061 20.2533C13.1496 18.2244 18.109 18.0554 21.4717 19.7463C21.9701 19.997 22.5958 19.8743 22.9027 19.4084C23.2071 18.9463 23.0831 18.3212 22.5947 18.0612C18.5956 15.9327 12.723 16.1034 8.99948 18.5733C7.14615 19.8133 6.13281 21.5067 6.13281 23.3333C6.13281 25.16 7.14615 26.84 8.99948 28.0667Z" fill="white"/>
<path d="M27 20L27 26" stroke="white" stroke-width="1.8" stroke-linecap="round"/>
<path d="M24 23H30" stroke="white" stroke-width="1.8" stroke-linecap="round"/>
</svg>
