<svg width="50" height="50" viewBox="0 0 50 50" fill="none" xmlns="http://www.w3.org/2000/svg">
<g clip-path="url(#clip0_761_20)">
<path d="M12.7758 3.1762C12.7758 0.631808 15.9314 -0.333909 17.4577 1.49973C19.5096 3.96205 21.0464 5.39403 22.4068 6.24973C23.0836 6.68407 23.8218 7.01431 24.5966 7.22942C23.0932 9.46754 22.3203 12.1165 22.3841 14.812C22.4574 18.1824 24.8586 20.3653 27.0205 21.2384L36.8943 25.2288C39.0562 26.1019 42.2974 26.2015 44.6951 23.8282C46.0288 22.5081 47.0633 20.9168 47.7284 19.162C48.8704 21.5267 49.4586 24.1204 49.4486 26.7463C49.4486 31.6518 47.463 35.9582 44.2096 39.2325V44.2096C44.2096 45.599 43.6576 46.9316 42.6751 47.9141C41.6926 48.8966 40.3601 49.4485 38.9706 49.4485H35.478C34.5517 49.4485 33.6633 49.0806 33.0083 48.4256C32.3533 47.7706 31.9853 46.8822 31.9853 45.9559H25C25 46.8822 24.6321 47.7706 23.9771 48.4256C23.3221 49.0806 22.4337 49.4485 21.5074 49.4485H18.0147C16.6253 49.4485 15.2927 48.8966 14.3102 47.9141C13.3277 46.9316 12.7758 45.599 12.7758 44.2096V42.7025C9.37219 40.7483 6.70381 37.8599 5.25087 33.9429C5.12513 33.6059 4.88938 33.44 4.70602 33.4016C3.53148 33.1544 2.47764 32.5109 1.72123 31.5789C0.964816 30.647 0.551826 29.4834 0.551514 28.2831V25.2096C0.551514 22.735 2.28561 20.5993 4.70776 20.0911C4.89113 20.0527 5.12688 19.8868 5.25087 19.5497C6.70381 15.6345 9.37219 12.7443 12.7758 10.7902V3.1762ZM15.3953 23.2537C16.09 23.2537 16.7563 22.9777 17.2475 22.4865C17.7388 21.9952 18.0147 21.3289 18.0147 20.6342C18.0147 19.9395 17.7388 19.2732 17.2475 18.7819C16.7563 18.2907 16.09 18.0147 15.3953 18.0147C14.7005 18.0147 14.0343 18.2907 13.543 18.7819C13.0518 19.2732 12.7758 19.9395 12.7758 20.6342C12.7758 21.3289 13.0518 21.9952 13.543 22.4865C14.0343 22.9777 14.7005 23.2537 15.3953 23.2537ZM25 14.5221C25 12.7968 25.426 11.0982 26.2401 9.57712C27.0543 8.05604 28.2315 6.75954 29.6671 5.80273C31.1028 4.84593 32.7525 4.25844 34.4697 4.09243C36.187 3.92641 37.9187 4.18702 39.5111 4.85109C41.1034 5.51517 42.5071 6.56216 43.5976 7.89912C44.6881 9.23607 45.4315 10.8216 45.762 12.5149C46.0924 14.2083 45.9996 15.957 45.4918 17.6058C44.9839 19.2547 44.0768 20.7526 42.851 21.9666C41.4085 23.3969 39.3723 23.4056 37.8757 22.7996L28.002 18.811C26.5036 18.2051 25.0472 16.7853 25.0018 14.7543L25 14.5221Z" fill="#ECF7FE"/>
</g>
<defs>
<clipPath id="clip0_761_20">
<rect width="50" height="50" fill="white"/>
</clipPath>
</defs>
</svg>
