<svg width="50" height="50" viewBox="0 0 50 50" fill="none" xmlns="http://www.w3.org/2000/svg">
<g clip-path="url(#clip0_934_62)">
<path d="M7.57905 18.7501C6.29155 18.7501 5.29155 17.5876 5.51863 16.3209C6.26655 12.1521 8.34363 8.27714 11.4666 5.35006C15.4978 1.56881 20.7624 -0.31661 26.3124 0.0438071C36.7728 0.718807 44.9436 9.82506 44.7895 20.7042C44.7061 26.5751 39.8124 31.2521 33.9395 31.2521H27.8311C27.0811 31.973 26.0686 32.4209 24.9478 32.4209C22.6457 32.4209 20.7811 30.5563 20.7811 28.2542C20.7811 25.9521 22.6457 24.0876 24.9478 24.0876C26.8395 24.0876 28.4186 25.3563 28.927 27.0855H33.9395C37.5561 27.0855 40.5832 24.2042 40.6228 20.5896C40.7186 11.9521 34.2791 4.73756 26.0436 4.20422C21.6707 3.93339 17.4999 5.40839 14.3145 8.39381C11.7957 10.7542 10.1728 13.7771 9.60405 17.098C9.43738 18.0688 8.56238 18.7542 7.57905 18.7542V18.7501ZM24.9999 35.4167C17.302 35.4167 10.6416 40.1917 8.42697 47.2959C8.22905 47.9292 8.34363 48.6188 8.73738 49.1521C9.13113 49.6855 9.75405 50.0001 10.4166 50.0001H39.5832C40.2457 50.0001 40.8686 49.6855 41.2624 49.1521C41.6561 48.6188 41.7707 47.9292 41.5728 47.2959C39.3582 40.1917 32.6978 35.4167 24.9999 35.4167ZM31.1124 22.9167H36.0166C36.2978 21.923 36.4582 20.8771 36.4582 19.7917C36.4582 13.4626 31.3291 8.33339 24.9999 8.33339C18.6707 8.33339 13.5416 13.4626 13.5416 19.7917C13.5416 22.898 14.7832 25.7105 16.7895 27.7751C17.0416 23.4709 20.5791 20.048 24.9478 20.048C27.4291 20.048 29.6166 21.1751 31.1145 22.9167H31.1124Z" fill="currentColor"/>
</g>
<defs>
<clipPath id="clip0_934_62">
<rect width="50" height="50" fill="currentColor"/>
</clipPath>
</defs>
</svg>
