<svg width="50" height="50" viewBox="0 0 50 50" fill="none" xmlns="http://www.w3.org/2000/svg">
<g clip-path="url(#clip0_934_50)">
<path d="M1.15383 28.3124C0.021411 26.6464 -0.204956 24.5252 0.550415 22.6577C2.2386 19.2139 5.06663 16.4605 8.55442 14.8652C11.0796 13.6095 13.8149 12.8307 16.6227 12.5677C15.3992 14.0731 14.1744 15.6794 12.9483 17.3867C10.4528 21.1656 8.31663 25.1699 6.5679 29.3472L5.81516 31.0351C3.92961 30.879 2.21594 29.8781 1.15383 28.3124ZM4.02161 37.0712C2.22004 39.5588 0.926977 42.3773 0.216626 45.3655C-0.226245 47.3071 0.988696 49.2402 2.9304 49.6831C3.45881 49.8036 4.00754 49.8035 4.53596 49.6827C7.51956 48.9712 10.3337 47.679 12.8179 45.8798C15.2503 43.4485 15.2513 39.5057 12.8199 37.0732C10.3887 34.6408 6.44583 34.6398 4.0134 37.0712H4.02161ZM20.4796 43.2505L18.7793 44.0053V44.6149C18.7834 46.0754 19.3683 47.4742 20.405 48.5029C21.3911 49.462 22.7121 49.999 24.0877 50.0001C28.9751 49.9296 32.9378 45.4797 35.0176 41.3367C36.2917 38.7727 37.0732 35.9923 37.3213 33.1398C35.8007 34.384 34.1701 35.6281 32.4297 36.8723C28.6523 39.3685 24.6486 41.5039 20.4713 43.2506L20.4796 43.2505ZM49.883 6.13545C49.6073 15.1617 43.1086 24.1134 30.014 33.5067C26.4505 35.8167 22.6912 37.8095 18.7793 39.4621V38.2947C18.76 34.2945 15.522 31.0564 11.5218 31.0372H10.3544C12.0109 27.1252 14.0071 23.3659 16.3201 19.8025C25.6906 6.73887 34.6277 0.231934 43.6395 -0.0625C48.1308 -0.0625 49.883 1.76641 49.883 6.13545ZM37.4415 17.5588C37.4415 14.6958 35.1206 12.3748 32.2575 12.3748C29.3945 12.3748 27.0736 14.6957 27.0736 17.5588C27.0736 20.4218 29.3945 22.7428 32.2575 22.7428C35.1206 22.7428 37.4415 20.4218 37.4415 17.5588Z" fill="currentColor"/>
</g>
<defs>
<clipPath id="clip0_934_50">
<rect width="50" height="50" fill="currentColor"/>
</clipPath>
</defs>
</svg>
