<svg width="50" height="50" viewBox="0 0 50 50" fill="none" xmlns="http://www.w3.org/2000/svg">
<g clip-path="url(#clip0_934_67)">
<path d="M18.675 14.5835C18.675 16.8814 16.8062 18.7502 14.5083 18.7502C12.2104 18.7502 10.3417 16.8814 10.3417 14.5835C10.3417 12.2856 12.2104 10.4169 14.5083 10.4169C16.8062 10.4169 18.675 12.2856 18.675 14.5835ZM33.3333 11.4585V24.3044L38.2917 28.7419C39.1604 29.5189 39.2354 30.8502 38.4625 31.721C37.6833 32.6002 36.3354 32.6731 35.4625 31.8856L26.9104 24.1523C25.0812 22.5314 22.3396 22.5044 20.4771 24.0856C18.4104 25.8419 18.1583 28.9398 19.9146 31.0044L27.6771 42.1898C28.6458 43.5856 29.1646 45.2419 29.1646 46.9398V47.9169C29.1646 49.0669 30.0979 50.0002 31.2479 50.0002H47.9146C49.0646 50.0002 49.9979 49.0669 49.9979 47.9169V35.496C49.9979 29.4877 47.4042 23.7731 42.8833 19.8169L33.3312 11.4585H33.3333ZM16.5938 33.5231C15.125 31.7044 14.4229 29.4294 14.6125 27.0919C14.7417 25.5044 15.3062 24.0314 16.1812 22.7502C14.9479 23.0023 13.6146 22.9835 12.25 22.6148C9.43333 21.8544 7.16042 19.5648 6.44792 16.7377C4.87083 10.4856 10.4146 4.94395 16.6667 6.5252C19.4333 7.2252 21.6812 9.42311 22.4875 12.1627C23.2396 14.721 22.7437 17.1314 21.5271 19.0398C22.2229 18.871 22.9333 18.7523 23.6583 18.7523C25.6583 18.7523 27.575 19.4419 29.1667 20.6606V15.0919C29.1667 7.68145 23.8521 1.06687 16.5021 0.125199C7.60833 -1.01647 0 5.91062 0 14.5835V31.2502C0 37.0023 4.66458 41.6669 10.4167 41.6669H22.2458L16.5938 33.5231Z" fill="currentColor"/>
</g>
<defs>
<clipPath id="clip0_934_67">
<rect width="50" height="50" fill="currentColor"/>
</clipPath>
</defs>
</svg>
