<svg width="50" height="50" viewBox="0 0 50 50" fill="none" xmlns="http://www.w3.org/2000/svg">
<g clip-path="url(#clip0_945_157)">
<path d="M27.6458 40.5834C25.9521 42.2772 25 44.573 25 46.9688V50.0001H28.0313C30.4271 50.0001 32.7229 49.048 34.4167 47.3543L48.5979 33.173C50.4667 31.3043 50.4667 28.2709 48.5979 26.4022C46.7292 24.5334 43.6958 24.5334 41.8271 26.4022L27.6458 40.5834ZM24.7 37.6376L35.2563 27.0834H31.2521C28.5271 27.0709 28.5292 22.9272 31.2521 22.9167H39.5396C42.3917 20.4417 46.8583 20.1501 50.0021 22.2376V14.5834C50.0021 8.83966 45.3292 4.16675 39.5854 4.16675H10.4167C4.67292 4.16675 0 8.83966 0 14.5834V35.4167C0 41.1605 4.67292 45.8334 10.4167 45.8334H20.8896C21.1521 42.7376 22.4771 39.8605 24.7 37.6376ZM31.2521 14.5834H39.5854C42.3104 14.5959 42.3083 18.7397 39.5854 18.7501H31.2521C28.5271 18.7376 28.5292 14.5938 31.2521 14.5834ZM14.5833 39.5834C13.4313 39.5834 12.5 38.6501 12.5 37.5001V35.4167H11.9417C9.71875 35.4167 7.64375 34.2209 6.52917 32.2938C5.95208 31.298 6.29375 30.0251 7.2875 29.448C8.2875 28.8688 9.56042 29.2126 10.1333 30.2084C10.5063 30.8501 11.1979 31.2501 11.9396 31.2501H16.6646C18.7417 31.3855 19.6688 28.0209 17.4062 27.5834L11.0708 26.5272C3.775 25.1751 5.34583 14.5417 12.4979 14.5834V12.5001C12.5104 9.77508 16.6542 9.77716 16.6646 12.5001V14.5834H17.2229C19.4458 14.5834 21.5208 15.7813 22.6354 17.7084C23.2125 18.7042 22.8708 19.9772 21.8771 20.5542C20.875 21.1292 19.6042 20.7897 19.0313 19.7938C18.6583 19.1501 17.9667 18.7522 17.225 18.7522H12.5C10.4229 18.6167 9.49583 21.9813 11.7583 22.4188L18.0938 23.4751C25.3896 24.8272 23.8188 35.4605 16.6667 35.4188V37.5022C16.6667 38.6522 15.7354 39.5834 14.5833 39.5834Z" fill="#ECF7FE"/>
</g>
<defs>
<clipPath id="clip0_945_157">
<rect width="50" height="50" fill="white"/>
</clipPath>
</defs>
</svg>
