<svg width="50" height="50" viewBox="0 0 50 50" fill="none" xmlns="http://www.w3.org/2000/svg">
<g clip-path="url(#clip0_945_207)">
<path d="M50 31.25V39.5833C50 40.7354 49.0687 41.6667 47.9167 41.6667C46.7646 41.6667 45.8333 40.7354 45.8333 39.5833V34.1583L36.7792 43.2104C34.8021 45.1917 31.3458 45.1937 29.3625 43.2104L27.0625 40.9104C26.6562 40.5042 25.9458 40.5062 25.5437 40.9104L17.1021 49.3896C16.6958 49.7958 16.1604 50.0021 15.625 50.0021C15.0937 50.0021 14.5604 49.8 14.1542 49.3958C13.3396 48.5833 13.3354 47.2646 14.1479 46.4479L22.5917 37.9688C24.5771 35.9833 28.0292 35.9833 30.0125 37.9688L32.3125 40.2687C32.7188 40.675 33.4292 40.6729 33.8312 40.2687L42.85 31.2521H37.5C36.3479 31.2521 35.4167 30.3208 35.4167 29.1687C35.4167 28.0167 36.3479 27.0854 37.5 27.0854H45.8333C48.1312 27.0854 50 28.9542 50 31.2521V31.25ZM19.6396 35.025L9.85417 44.8333C3.88125 40.2667 0 33.1 0 25C0 11.1937 11.1937 0 25 0C38.4854 0 49.4479 10.6854 49.9521 24.05C48.7312 23.35 47.3375 22.9167 45.8333 22.9167H37.5C34.0542 22.9167 31.25 25.7208 31.25 29.1667C31.25 31.2833 32.3125 33.15 33.9271 34.2812L33.0729 35.1354L32.9604 35.0229C31.2417 33.3021 28.8167 32.3125 26.3083 32.3104H26.3021C23.7937 32.3104 21.3667 33.2958 19.6396 35.025ZM16.9042 32.1354L26.0875 26.5187C26.7083 26.1375 27.0854 25.4667 27.0854 24.7396V12.4979C27.0854 11.3458 26.1542 10.4146 25.0021 10.4146C23.85 10.4146 22.9188 11.3458 22.9188 12.4979V23.5708L14.7312 28.5771C13.7479 29.1792 13.4396 30.4604 14.0396 31.4417C14.4333 32.0854 15.1187 32.4396 15.8187 32.4396C16.1896 32.4396 16.5646 32.3417 16.9042 32.1354Z" fill="currentColor"/>
</g>
<defs>
<clipPath id="clip0_945_207">
<rect width="50" height="50" fill="currentColor"/>
</clipPath>
</defs>
</svg>
