<svg width="50" height="50" viewBox="0 0 50 50" fill="none" xmlns="http://www.w3.org/2000/svg">
<path d="M0 20.8334V37.5C0 43.2438 4.67292 47.9167 10.4167 47.9167H39.5833C45.3271 47.9167 50 43.2438 50 37.5V20.8334H0ZM18.75 39.5834C18.75 40.7355 17.8167 41.6667 16.6667 41.6667C15.5167 41.6667 14.5833 40.7355 14.5833 39.5834V35.4167C14.5833 34.2646 15.5167 33.3334 16.6667 33.3334C17.8167 33.3334 18.75 34.2646 18.75 35.4167V39.5834ZM27.0833 39.5834C27.0833 40.7355 26.15 41.6667 25 41.6667C23.85 41.6667 22.9167 40.7355 22.9167 39.5834V27.0834C22.9167 25.9313 23.85 25 25 25C26.15 25 27.0833 25.9313 27.0833 27.0834V39.5834ZM35.4167 39.5834C35.4167 40.7355 34.4833 41.6667 33.3333 41.6667C32.1833 41.6667 31.25 40.7355 31.25 39.5834V31.25C31.25 30.098 32.1833 29.1667 33.3333 29.1667C34.4833 29.1667 35.4167 30.098 35.4167 31.25V39.5834ZM39.5833 2.08337H10.4167C4.67292 2.08337 0 6.75629 0 12.5V16.6667H50V12.5C50 6.75629 45.3271 2.08337 39.5833 2.08337ZM9.375 12.5C7.65 12.5 6.25 11.1 6.25 9.37504C6.25 7.65004 7.65 6.25004 9.375 6.25004C11.1 6.25004 12.5 7.65004 12.5 9.37504C12.5 11.1 11.1 12.5 9.375 12.5ZM17.7083 12.5C15.9833 12.5 14.5833 11.1 14.5833 9.37504C14.5833 7.65004 15.9833 6.25004 17.7083 6.25004C19.4333 6.25004 20.8333 7.65004 20.8333 9.37504C20.8333 11.1 19.4333 12.5 17.7083 12.5Z" fill="currentColor"/>
</svg>
