<svg width="50" height="50" viewBox="0 0 50 50" fill="none" xmlns="http://www.w3.org/2000/svg">
<g clip-path="url(#clip0_945_202)">
<path d="M42.7083 12.5H38.5417C34.5208 12.5 31.25 15.7708 31.25 19.7917V28.125C31.25 31.0229 32.9625 33.5104 35.4167 34.6854V47.9167C35.4167 49.0667 36.35 50 37.5 50C38.65 50 39.5833 49.0667 39.5833 47.9167V35.4167H41.6667V47.9167C41.6667 49.0667 42.6 50 43.75 50C44.9 50 45.8333 49.0667 45.8333 47.9167V34.6854C48.2875 33.5104 50 31.0229 50 28.125V19.7917C50 15.7708 46.7292 12.5 42.7083 12.5ZM35.4167 5.20833C35.4167 2.33125 37.7479 0 40.625 0C43.5021 0 45.8333 2.33125 45.8333 5.20833C45.8333 8.08542 43.5021 10.4167 40.625 10.4167C37.7479 10.4167 35.4167 8.08542 35.4167 5.20833ZM25 5.20833C25 2.33125 27.3312 0 30.2083 0C31.0458 0 31.8271 0.216667 32.5292 0.56875C31.7375 1.94167 31.25 3.5125 31.25 5.20833C31.25 6.90417 31.7375 8.475 32.5312 9.84792C31.8292 10.2 31.0479 10.4167 30.2083 10.4167C27.3312 10.4167 25 8.08542 25 5.20833ZM14.5833 5.20833C14.5833 2.33125 16.9146 0 19.7917 0C20.6292 0 21.4104 0.216667 22.1125 0.56875C21.3208 1.94167 20.8333 3.5125 20.8333 5.20833C20.8333 6.90417 21.3208 8.475 22.1146 9.84792C21.4125 10.2 20.6312 10.4167 19.7917 10.4167C16.9146 10.4167 14.5833 8.08542 14.5833 5.20833ZM4.16667 5.20833C4.16667 2.33125 6.49792 0 9.375 0C10.2125 0 10.9937 0.216667 11.6958 0.56875C10.9042 1.94167 10.4167 3.5125 10.4167 5.20833C10.4167 6.90417 10.9042 8.475 11.6979 9.84792C10.9958 10.2 10.2146 10.4167 9.375 10.4167C6.49792 10.4167 4.16667 8.08542 4.16667 5.20833ZM29.7104 12.5C28.0708 14.4833 27.0833 17.025 27.0833 19.7917V45.8333C27.0833 46.9833 26.15 47.9167 25 47.9167C23.85 47.9167 22.9167 46.9833 22.9167 45.8333V33.2271C21.5979 31.875 20.8333 30.0354 20.8333 28.125V19.7917C20.8333 15.7708 24.1042 12.5 28.125 12.5H29.7104ZM19.2937 12.5C17.6542 14.4833 16.6667 14.9417 16.6667 17.7083V41.6667C16.6667 42.8167 15.7333 43.75 14.5833 43.75C13.4333 43.75 12.5 42.8167 12.5 41.6667V31.1437C11.1812 29.7917 10.4167 27.9521 10.4167 26.0417V19.7917C10.4167 15.7708 13.6875 12.5 17.7083 12.5H19.2937ZM8.87708 12.5C7.2375 14.4833 6.25 14.9417 6.25 17.7083V37.5C6.25 38.65 5.31667 39.5833 4.16667 39.5833C3.01667 39.5833 2.08333 38.65 2.08333 37.5V29.0604C0.764583 27.7083 0 25.8687 0 23.9583V19.7917C0 15.7708 3.27083 12.5 7.29167 12.5H8.87708Z" fill="currentColor"/>
</g>
<defs>
<clipPath id="clip0_945_202">
<rect width="50" height="50" fill="currentColor"/>
</clipPath>
</defs>
</svg>
