<svg width="80" height="81" viewBox="0 0 80 81" fill="none" xmlns="http://www.w3.org/2000/svg">
<g clip-path="url(#clip0_945_67)">
<path d="M5.00065 60.6855C5.00065 57.0021 7.98398 54.0188 11.6673 54.0188C15.3506 54.0188 18.334 57.0021 18.334 60.6855C18.334 64.3688 15.3506 67.3521 11.6673 67.3521C7.98398 67.3521 5.00065 64.3688 5.00065 60.6855ZM11.6673 70.6855C7.44065 70.6855 3.52065 72.2821 0.903981 75.0688C-1.10269 77.0688 0.503981 80.7788 3.33398 80.6855H20.0006C22.8306 80.7788 24.4373 77.0688 22.4306 75.0688C19.814 72.2821 15.8906 70.6855 11.6673 70.6855ZM80.0006 62.3521V72.3521C80.0006 76.9455 76.264 80.6855 71.6673 80.6855H61.6673C57.0706 80.6855 53.334 76.9455 53.334 72.3521V62.3521C53.334 57.7588 57.0706 54.0188 61.6673 54.0188H71.6673C76.264 54.0188 80.0006 57.7588 80.0006 62.3521ZM71.6673 64.0188C71.6673 62.1788 70.1773 60.6855 68.334 60.6855H65.0006C63.1573 60.6855 61.6673 62.1788 61.6673 64.0188C61.6673 65.8588 63.1573 67.3521 65.0006 67.3521H68.334C70.1773 67.3521 71.6673 65.8588 71.6673 64.0188ZM42.924 63.8055C41.1507 64.0488 40.2573 64.0488 38.2006 63.9521L38.9373 59.6488C39.2807 57.6488 37.1107 56.1721 35.374 57.2221L26.8873 62.3521C25.1273 63.4588 24.7206 65.8455 26.0106 67.4755L32.2973 75.1788C33.584 76.7555 36.1273 76.0855 36.4706 74.0788L37.0807 70.5121C40.0573 70.7388 41.2473 70.7555 43.7773 70.4055C45.4307 70.1655 46.664 68.7588 46.664 67.0888C46.664 65.0855 44.9073 63.5155 42.924 63.8055ZM25.9073 38.7921L21.574 29.8721C20.634 28.0188 18.2906 27.3955 16.554 28.5321L8.30731 34.0888C6.62065 35.2255 7.05398 37.8188 9.02065 38.3455L12.7773 39.3488C12.6706 40.3021 12.5873 41.2621 12.5873 42.2455C12.5873 43.1888 12.704 45.4021 13.0573 47.2288C13.3373 48.6721 14.5806 49.7288 16.0506 49.7821C16.0706 49.7821 16.094 49.7821 16.114 49.7821C18.084 49.8521 19.7106 48.1021 19.334 46.1688C19.0873 44.8988 18.764 42.5221 19.354 41.1021L23.1706 42.1188C25.1306 42.6421 26.8006 40.6188 25.914 38.7921H25.9073ZM55.1007 42.8488L63.494 48.1321C65.2707 49.2088 67.5873 48.4988 68.464 46.6155L72.5307 37.5421C73.364 35.6855 71.624 33.7121 69.6773 34.3055L66.3906 35.3088L66.2206 35.3621C65.594 33.2321 64.754 31.1921 63.674 29.3055C62.7306 27.6521 60.5006 27.2588 58.9806 28.4021C58.9673 28.4121 58.9506 28.4255 58.9373 28.4355C57.7373 29.3421 57.324 30.9455 57.9406 32.3155C58.7006 33.9955 59.4806 36.0455 59.8506 37.3021L55.6707 38.5755C53.7273 39.1688 53.3806 41.7688 55.1007 42.8488ZM51.5406 27.3488C50.974 27.3488 50.4007 27.2055 49.8773 26.9021L48.7507 26.2521C47.264 27.7155 45.3973 28.7655 43.334 29.3388V30.6821C43.334 32.5221 41.844 34.0155 40.0007 34.0155C38.1573 34.0155 36.6673 32.5221 36.6673 30.6821V29.3388C34.604 28.7621 32.7373 27.7121 31.2507 26.2521L30.124 26.9021C28.5573 27.8121 26.4973 27.2888 25.5706 25.6821C24.6506 24.0855 25.1973 22.0488 26.7906 21.1288L27.944 20.4621C27.374 18.4788 27.374 16.2188 27.944 14.2355L26.7906 13.5688C25.194 12.6488 24.6473 10.6088 25.5706 9.01546C26.494 7.42213 28.534 6.87546 30.124 7.79546L31.2507 8.44546C32.7373 6.98213 34.604 5.93213 36.6673 5.3588V4.01546C36.6673 2.17546 38.1573 0.682129 40.0007 0.682129C41.844 0.682129 43.334 2.17546 43.334 4.01546V5.3588C45.3973 5.93546 47.264 6.98546 48.7507 8.44546L49.8773 7.79546C51.464 6.87546 53.5073 7.42213 54.4306 9.01546C55.3507 10.6121 54.804 12.6488 53.2107 13.5688L52.0573 14.2355C52.6273 16.2188 52.6273 18.4788 52.0573 20.4621L53.2107 21.1288C54.8073 22.0488 55.354 24.0888 54.4306 25.6821C53.8106 26.7521 52.694 27.3488 51.5406 27.3488ZM44.9973 17.3488C44.9973 14.5921 42.754 12.3488 39.9973 12.3488C37.2407 12.3488 34.9973 14.5921 34.9973 17.3488C34.9973 20.1055 37.2407 22.3488 39.9973 22.3488C42.754 22.3488 44.9973 20.1055 44.9973 17.3488Z" fill="#ECF7FE"/>
</g>
<defs>
<clipPath id="clip0_945_67">
<rect width="80" height="80" fill="white" transform="translate(0 0.685303)"/>
</clipPath>
</defs>
</svg>
