<svg width="50" height="50" viewBox="0 0 50 50" fill="none" xmlns="http://www.w3.org/2000/svg">
<g clip-path="url(#clip0_945_222)">
<path d="M34.4249 36.5062L32.7415 38.1896L26.8478 32.2937L28.5311 30.6125C29.752 29.3917 31.7311 29.3917 32.952 30.6125L34.427 32.0875C35.6457 33.3083 35.6436 35.2854 34.4249 36.5062ZM17.9145 15.5792L19.3874 17.0521C20.6082 18.2729 20.6082 20.2521 19.3874 21.4729L17.7061 23.1542L11.8124 17.2625L13.4957 15.5792C14.7165 14.3583 16.6936 14.3583 17.9145 15.5792ZM49.979 11.7625C49.7832 8.42915 48.2999 5.3729 45.804 3.15415C43.3061 0.939569 40.0957 -0.175014 36.7624 0.0229026C33.429 0.218736 30.3728 1.70207 28.154 4.1979C25.9374 6.69374 24.8228 9.90415 25.0207 13.2375C25.2165 16.5708 26.6999 19.6271 29.1957 21.8458C31.6915 24.0625 34.902 25.1771 38.2353 24.9792C41.5686 24.7833 44.6249 23.3 46.8436 20.8042C49.0603 18.3083 50.1749 15.0979 49.977 11.7646L49.979 11.7625ZM41.6665 8.33332C41.6665 10.6354 39.802 12.5 37.4999 12.5C35.1978 12.5 33.3332 10.6354 33.3332 8.33332C33.3332 6.11457 35.0728 4.31874 37.2582 4.19165C37.5374 4.18332 37.8103 4.20624 38.0832 4.22707C40.1061 4.51249 41.6665 6.23124 41.6665 8.33332ZM43.727 18.0333C42.3103 19.6292 40.2853 20.6854 37.9915 20.8208C35.3207 20.9792 32.8895 19.8292 31.2499 17.9562V17.7083C31.2499 15.9833 32.6499 14.5833 34.3749 14.5833H40.6249C42.3499 14.5833 43.7499 15.9833 43.7499 17.7083V18C43.7499 18 43.7353 18.0229 43.727 18.0312V18.0333ZM14.7978 50C10.8457 50 7.12904 48.4604 4.33529 45.6646C1.54154 42.8729 0.00195312 39.1562 0.00195312 35.2042C0.00195312 31.2521 1.54154 27.5333 4.33737 24.7417L8.90195 20.175L14.7957 26.0667L10.229 30.6354C9.00612 31.8562 8.33529 33.4771 8.33529 35.2042C8.33529 36.9312 9.00612 38.5521 10.227 39.7708C12.6707 42.2167 16.927 42.2146 19.3686 39.7708L23.9395 35.2021L29.8311 41.0979L25.2624 45.6646C22.4686 48.4583 18.752 49.9979 14.7999 49.9979L14.7978 50Z" fill="currentColor"/>
</g>
<defs>
<clipPath id="clip0_945_222">
<rect width="50" height="50" fill="currentColor"/>
</clipPath>
</defs>
</svg>
