<svg width="50" height="50" viewBox="0 0 50 50" fill="none" xmlns="http://www.w3.org/2000/svg">
<g clip-path="url(#clip0_945_161)">
<path d="M25 5.2085C25 4.42933 25.0958 3.67308 25.275 2.95017L23.3937 1.58975C19.8062 -0.949833 14.9792 -0.83525 11.5167 1.87308L3.99792 7.7585C1.475 9.7335 0 12.7585 0 15.9627V27.0835C0 31.6856 3.73125 35.4168 8.33333 35.4168H22.3167C22.5333 35.0564 22.7708 34.7106 23.0292 34.3773C22.6 34.3773 22.1667 34.3314 21.7375 34.2398C19.8583 33.8439 18.2854 32.6314 17.4125 30.8752C15.9833 27.996 17.1687 24.4814 19.8604 22.7273L24.0354 20.0064L25.2292 15.7418C25.7062 14.2085 26.5396 12.8377 27.6167 11.7043C25.9958 10.0189 24.9958 7.72933 24.9958 5.21058L25 5.2085ZM12.5 25.0002C12.5 26.1502 11.5667 27.0835 10.4167 27.0835H8.33333C7.18333 27.0835 6.25 26.1502 6.25 25.0002V22.9168C6.25 21.7668 7.18333 20.8335 8.33333 20.8335H10.4167C11.5667 20.8335 12.5 21.7668 12.5 22.9168V25.0002ZM29.1667 5.2085C29.1667 2.33142 31.4979 0.000166997 34.375 0.000166997C37.2521 0.000166997 39.5833 2.33142 39.5833 5.2085C39.5833 8.08558 37.2521 10.4168 34.375 10.4168C31.4979 10.4168 29.1667 8.08558 29.1667 5.2085ZM44.6354 47.1273C45.0729 48.1918 44.5646 49.4085 43.5 49.846C43.2396 49.9523 42.9729 50.0023 42.7083 50.0023C41.8875 50.0023 41.1104 49.5148 40.7812 48.7085L37.3625 40.3752C36.925 39.3106 37.4333 38.0939 38.4979 37.6564C39.5667 37.221 40.7812 37.7293 41.2167 38.7939L44.6354 47.1273ZM47.2771 18.9148L40.5271 14.3023C39.9 13.7314 38.2271 12.5356 35.2188 12.5356C32.6271 12.5356 30.0104 14.4106 29.2458 16.8648L27.8396 21.8877C27.7042 22.3731 27.3937 22.7939 26.9708 23.071L21.8937 26.3814C20.9312 27.0106 20.6583 28.3002 21.2854 29.2648C21.9125 30.2273 23.2042 30.5023 24.1687 29.8731L29.2479 26.5627C30.0812 26.0189 30.7646 25.2877 31.2521 24.4398V33.2939L27.8062 35.5731C26.05 36.7335 25.0021 38.6835 25.0021 40.7856V47.921C25.0021 49.071 25.9354 50.0043 27.0854 50.0043C28.2354 50.0043 29.1687 49.071 29.1687 47.921V40.7856C29.1687 40.0856 29.5187 39.4356 30.1042 39.0481L39.0021 33.1647C40.6729 31.996 41.6687 30.0814 41.6687 28.0439V20.1335L44.9271 22.3606C45.4937 22.7481 45.8354 23.3918 45.8354 24.0793V29.171C45.8354 30.321 46.7667 31.2543 47.9187 31.2543C49.0708 31.2543 50.0021 30.321 50.0021 29.171V24.0793C50.0021 22.0127 48.9833 20.0835 47.2771 18.9189V18.9148Z" fill="#ECF7FE"/>
</g>
<defs>
<clipPath id="clip0_945_161">
<rect width="50" height="50" fill="white"/>
</clipPath>
</defs>
</svg>
