<svg width="50" height="50" viewBox="0 0 50 50" fill="none" xmlns="http://www.w3.org/2000/svg">
<g clip-path="url(#clip0_945_227)">
<path d="M16.6667 25C9.77292 25 4.16667 19.3937 4.16667 12.5C4.16667 5.60625 9.77292 0 16.6667 0C23.5604 0 29.1667 5.60625 29.1667 12.5C29.1667 19.3937 23.5604 25 16.6667 25ZM30.7167 50C30.2771 50 29.8375 49.8604 29.4667 49.5833C28.7583 49.0542 28.4646 48.1333 28.7292 47.2896L30.6896 41.0062L25.7375 36.9771C25.0708 36.4125 24.8271 35.4917 25.1292 34.6708C25.4312 33.85 26.2104 33.3063 27.0833 33.3063H33.3354L35.5479 27.0979C35.8521 26.2833 36.6312 25.7417 37.5 25.7417C38.3687 25.7417 39.1479 26.2833 39.4521 27.0979L41.6646 33.3063H47.9167C48.7917 33.3063 49.5729 33.8542 49.8729 34.675C50.1729 35.4958 49.9271 36.4188 49.2583 36.9833L44.3292 40.9979L46.3687 47.2062C46.6479 48.0458 46.3646 48.9708 45.6625 49.5104C44.9604 50.05 43.9937 50.0875 43.2542 49.6063L37.5167 45.8708L31.875 49.6458C31.525 49.8812 31.1208 50 30.7167 50ZM20.7021 50H2.08333C0.933333 50 0 49.0667 0 47.9167C0 37.5792 8.4125 29.1667 18.75 29.1667H20.7021C21.4229 29.1667 22.0917 29.5417 22.4729 30.1542C22.8521 30.7667 22.8875 31.5333 22.5667 32.1771C21.4167 34.4896 20.8333 36.9833 20.8333 39.5833C20.8333 42.1833 21.4167 44.675 22.5667 46.9896C22.8875 47.6354 22.8521 48.4021 22.4729 49.0146C22.0937 49.6271 21.4229 50 20.7021 50Z" fill="currentColor"/>
</g>
<defs>
<clipPath id="clip0_945_227">
<rect width="50" height="50" fill="currentColor"/>
</clipPath>
</defs>
</svg>
