<svg width="50" height="50" viewBox="0 0 50 50" fill="none" xmlns="http://www.w3.org/2000/svg">
<g clip-path="url(#clip0_934_57)">
<path d="M37.5001 29.1667C37.1751 29.1667 36.8501 29.0917 36.5522 28.9396C29.0105 25.0917 25.123 20.2167 24.996 14.448V9.03754C24.998 6.14171 26.848 3.58129 29.598 2.66671L36.846 0.266711C37.271 0.125045 37.7314 0.125045 38.1564 0.266711L45.4001 2.66671C48.1522 3.57921 50.0001 6.14171 50.0001 9.03963V14.4042C49.8668 20.9646 45.9293 25.8667 38.2939 29.0105C38.0397 29.1146 37.771 29.1667 37.5001 29.1667ZM50.0001 37.4521V41.6188C50.0001 46.2209 43.0043 49.9521 34.3751 49.9521C26.9376 49.9521 20.7251 47.1771 19.148 43.4646C18.0105 43.6063 16.8418 43.7021 15.6251 43.7021C6.99596 43.7021 0.000130208 39.9709 0.000130208 35.3688V31.2021C0.000130208 35.8042 6.99596 39.5355 15.6251 39.5355C17.9355 39.5355 19.123 39.2688 19.123 39.2688C20.6772 42.998 26.9168 45.7855 34.3751 45.7855C43.0043 45.7855 50.0001 42.0542 50.0001 37.4521ZM47.4772 28.7542C46.0064 30.1042 43.7626 31.4292 41.4147 32.5584C38.7939 33.8209 35.7168 33.7105 33.2001 32.248C30.123 30.4605 27.2126 28.3271 25.6126 26.3855C22.6564 27.4542 20.446 29.0542 19.4105 30.923C18.1918 31.0875 16.9376 31.2021 15.623 31.2021C6.99388 31.2021 -0.00195312 27.4709 -0.00195312 22.8688V27.0355C-0.00195312 31.6375 6.99388 35.3688 15.623 35.3688C16.8418 35.3688 18.0064 35.2688 19.1439 35.125C20.7168 38.8417 26.9314 41.6188 34.373 41.6188C43.0022 41.6188 49.998 37.8875 49.998 33.2855C49.998 31.6125 49.0668 30.0584 47.4772 28.7542ZM15.6251 27.0355C19.0626 27.0355 22.2293 26.4355 24.8105 25.4334C21.8064 21.6855 20.9022 17.9313 20.8355 14.9313V10.8542C19.2043 10.5459 17.4564 10.3688 15.6272 10.3688C6.99596 10.3688 0.000130208 14.1 0.000130208 18.7021C0.000130208 23.3042 6.99596 27.0355 15.6251 27.0355Z" fill="currentColor"/>
</g>
<defs>
<clipPath id="clip0_934_57">
<rect width="50" height="50" fill="currentColor"/>
</clipPath>
</defs>
</svg>
