<svg width="80" height="81" viewBox="0 0 80 81" fill="none" xmlns="http://www.w3.org/2000/svg">
<g clip-path="url(#clip0_945_65)">
<path d="M79.0233 74.9953L70.5567 66.5286C72.3033 63.892 73.3333 60.742 73.3333 57.352C73.3333 48.162 65.8567 40.6853 56.6667 40.6853C47.4767 40.6853 40 48.162 40 57.352C40 66.542 47.4767 74.0186 56.6667 74.0186C60.0567 74.0186 63.2067 72.9886 65.8433 71.242L74.31 79.7086C75.6133 81.012 77.72 81.012 79.0233 79.7086C80.3267 78.4053 80.3267 76.2986 79.0233 74.9953ZM63.3333 0.685303H16.6667C7.47667 0.685303 0 8.16197 0 17.352V24.0186H80V17.352C80 8.16197 72.5233 0.685303 63.3333 0.685303ZM15 17.352C12.24 17.352 10 15.112 10 12.352C10 9.59197 12.24 7.35197 15 7.35197C17.76 7.35197 20 9.59197 20 12.352C20 15.112 17.76 17.352 15 17.352ZM28.3333 17.352C25.5733 17.352 23.3333 15.112 23.3333 12.352C23.3333 9.59197 25.5733 7.35197 28.3333 7.35197C31.0933 7.35197 33.3333 9.59197 33.3333 12.352C33.3333 15.112 31.0933 17.352 28.3333 17.352ZM41.6667 17.352C38.9067 17.352 36.6667 15.112 36.6667 12.352C36.6667 9.59197 38.9067 7.35197 41.6667 7.35197C44.4267 7.35197 46.6667 9.59197 46.6667 12.352C46.6667 15.112 44.4267 17.352 41.6667 17.352ZM0 30.6853V57.352C0 66.542 7.47667 74.0186 16.6667 74.0186H40.37C36.0367 69.7786 33.3333 63.8786 33.3333 57.352C33.3333 44.4853 43.8033 34.0186 56.6667 34.0186C69.53 34.0186 80 44.4853 80 57.352V30.6853H0ZM13.3333 60.6853C13.3333 62.5253 11.84 64.0186 10 64.0186C8.16 64.0186 6.66667 62.5253 6.66667 60.6853V54.0186C6.66667 52.1786 8.16 50.6853 10 50.6853C11.84 50.6853 13.3333 52.1786 13.3333 54.0186V60.6853ZM26.6667 60.6853C26.6667 62.5253 25.1733 64.0186 23.3333 64.0186C21.4933 64.0186 20 62.5253 20 60.6853V44.0186C20 42.1786 21.4933 40.6853 23.3333 40.6853C25.1733 40.6853 26.6667 42.1786 26.6667 44.0186V60.6853Z" fill="#ECF7FE"/>
</g>
<defs>
<clipPath id="clip0_945_65">
<rect width="80" height="80" fill="white" transform="translate(0 0.685303)"/>
</clipPath>
</defs>
</svg>
