<svg width="50" height="50" viewBox="0 0 50 50" fill="none" xmlns="http://www.w3.org/2000/svg">
<g clip-path="url(#clip0_945_217)">
<path d="M34.375 37.5004C34.375 36.5421 34.1896 35.6359 33.9208 34.7671L35.0667 34.1067C36.0646 33.5317 36.4062 32.2588 35.8312 31.2609C35.2562 30.265 33.9833 29.9213 32.9875 30.4963L31.8542 31.1504C30.5937 29.7921 28.9521 28.8046 27.0854 28.3775V27.0838C27.0854 25.9338 26.1521 25.0004 25.0021 25.0004C23.8521 25.0004 22.9188 25.9338 22.9188 27.0838V28.3775C21.0521 28.8046 19.4083 29.79 18.15 31.1504L17.0167 30.4963C16.0208 29.9213 14.7458 30.265 14.1729 31.2609C13.5979 32.2588 13.9396 33.5317 14.9375 34.1067L16.0833 34.7671C15.8146 35.6379 15.6292 36.5442 15.6292 37.5004C15.6292 38.4567 15.8146 39.365 16.0833 40.2338L14.9375 40.8942C13.9396 41.4692 13.5979 42.7421 14.1729 43.74C14.7479 44.7359 16.0208 45.0796 17.0167 44.5046L18.15 43.8504C19.4104 45.2088 21.0521 46.1963 22.9188 46.6234V47.9171C22.9188 49.0671 23.8521 50.0005 25.0021 50.0005C26.1521 50.0005 27.0854 49.0671 27.0854 47.9171V46.6234C28.9521 46.1963 30.5958 45.2109 31.8542 43.8504L32.9875 44.5046C33.9833 45.0796 35.2583 44.7359 35.8312 43.74C36.4062 42.7421 36.0646 41.4692 35.0667 40.8942L33.9208 40.2338C34.1896 39.3629 34.375 38.4567 34.375 37.5004ZM25 40.6254C23.2771 40.6254 21.875 39.2234 21.875 37.5004C21.875 35.7775 23.2771 34.3754 25 34.3754C26.7229 34.3754 28.125 35.7775 28.125 37.5004C28.125 39.2234 26.7229 40.6254 25 40.6254ZM50 26.0359C50 32.0963 46.525 37.3504 41.4688 39.94C41.5854 39.1421 41.6667 38.3317 41.6667 37.5004C41.6667 28.2963 34.2042 20.8338 25 20.8338C15.7958 20.8338 8.33333 28.2963 8.33333 37.5004C8.33333 38.8213 8.50417 40.1004 8.79375 41.3338C3.75833 40.1275 0 35.6004 0 30.2004C0 26.9796 1.36667 23.89 3.75208 21.7213C4.32083 21.2046 4.59583 20.4859 4.47292 19.8442C4.08958 17.8734 4.06667 15.8463 4.40417 13.8234C5.54167 6.97128 10.8854 1.52961 17.7021 0.279611C25.1854 -1.09747 32.6667 2.71086 35.9 9.52544C36.1917 10.1421 36.7542 10.5734 37.4458 10.7109C44.7208 12.1609 50 18.6046 50 26.0317V26.0359Z" fill="currentColor"/>
</g>
<defs>
<clipPath id="clip0_945_217">
<rect width="50" height="50" fill="currentColor"/>
</clipPath>
</defs>
</svg>
