<svg width="80" height="81" viewBox="0 0 80 81" fill="none" xmlns="http://www.w3.org/2000/svg">
<g clip-path="url(#clip0_942_25)">
<path d="M74.9499 37.2685L39.9998 58.2418L5.04984 37.2685C4.29176 36.8136 3.38404 36.6786 2.52638 36.893C1.66871 37.1074 0.931349 37.6537 0.476502 38.4118C0.0216561 39.1699 -0.113416 40.0776 0.101001 40.9353C0.315417 41.793 0.861759 42.5303 1.61984 42.9852L38.2865 64.9852C38.8049 65.2966 39.3984 65.4612 40.0032 65.4612C40.608 65.4612 41.2014 65.2966 41.7198 64.9852L78.3865 42.9852C79.1446 42.5303 79.6909 41.793 79.9053 40.9353C80.1198 40.0776 79.9847 39.1699 79.5298 38.4118C79.075 37.6537 78.3376 37.1074 77.48 36.893C76.6223 36.6786 75.7146 36.8136 74.9565 37.2685H74.9499Z" fill="#0088E7"/>
<path d="M74.9498 52.4955L39.9998 73.4655L5.04983 52.4955C4.67446 52.2703 4.25842 52.1212 3.82544 52.0568C3.39247 51.9924 2.95104 52.0139 2.52637 52.12C2.10169 52.2262 1.70209 52.415 1.35037 52.6756C0.998654 52.9362 0.70171 53.2635 0.476492 53.6389C0.251275 54.0142 0.102197 54.4303 0.037768 54.8633C-0.0266607 55.2962 -0.00517757 55.7377 0.100991 56.1623C0.315407 57.02 0.861749 57.7574 1.61983 58.2122L38.2865 80.2122C38.8049 80.5237 39.3983 80.6882 40.0032 80.6882C40.608 80.6882 41.2014 80.5237 41.7198 80.2122L78.3865 58.2122C79.1446 57.7574 79.6909 57.02 79.9053 56.1623C80.1198 55.3047 79.9847 54.397 79.5298 53.6389C79.075 52.8808 78.3376 52.3345 77.4799 52.12C76.6223 51.9056 75.7146 52.0407 74.9565 52.4955H74.9498Z" fill="#0088E7"/>
<path d="M1.61659 28.542L34.8966 48.512C36.4375 49.4389 38.2017 49.9287 39.9999 49.9287C41.7981 49.9287 43.5624 49.4389 45.1033 48.512L78.3833 28.542C78.8761 28.2456 79.2839 27.8268 79.567 27.3263C79.8501 26.8257 79.9989 26.2604 79.9989 25.6853C79.9989 25.1103 79.8501 24.545 79.567 24.0444C79.2839 23.5438 78.8761 23.125 78.3833 22.8287L45.1033 2.85866C43.562 1.93276 41.7979 1.4436 39.9999 1.4436C38.2019 1.4436 36.4378 1.93276 34.8966 2.85866L1.61659 22.8287C1.12375 23.125 0.715958 23.5438 0.432858 24.0444C0.149757 24.545 0.000976563 25.1103 0.000976562 25.6853C0.000976563 26.2604 0.149757 26.8257 0.432858 27.3263C0.715958 27.8268 1.12375 28.2456 1.61659 28.542Z" fill="#0088E7"/>
</g>
<defs>
<clipPath id="clip0_942_25">
<rect width="80" height="80" fill="white" transform="translate(0 0.685303)"/>
</clipPath>
</defs>
</svg>
