<svg width="50" height="50" viewBox="0 0 50 50" fill="" xmlns="http://www.w3.org/2000/svg">
<g clip-path="url(#clip0_934_21)">
<path d="M0 10.4166C0 6.96455 5.59583 4.16664 12.5 4.16664C19.4042 4.16664 25 6.96455 25 10.4166C25 13.8687 19.4042 16.6666 12.5 16.6666C5.59583 16.6666 0 13.8687 0 10.4166ZM12.5 33.3333C19.6271 33.3333 25 30.1979 25 26.0416V21.875C25 25.9812 19.7917 29.1666 12.5 29.1666C5.20833 29.1666 0 25.9812 0 21.875V26.0416C0 30.1979 5.37292 33.3333 12.5 33.3333ZM12.5 25C19.6271 25 25 21.8646 25 17.7083V13.5416C25 17.6479 19.7917 20.8333 12.5 20.8333C5.20833 20.8333 0 17.6479 0 13.5416V17.7083C0 21.8646 5.37292 25 12.5 25ZM37.5 33.3333C44.4042 33.3333 50 30.5354 50 27.0833C50 23.6312 44.4042 20.8333 37.5 20.8333C30.5958 20.8333 25 23.6312 25 27.0833C25 30.5354 30.5958 33.3333 37.5 33.3333ZM37.5 45.8333C30.2083 45.8333 25 42.6479 25 38.5416C25 42.6479 19.7917 45.8333 12.5 45.8333C5.20833 45.8333 0 42.6479 0 38.5416V42.7083C0 46.8646 5.37292 50 12.5 50C19.6271 50 25 46.8646 25 42.7083C25 46.8646 30.3729 50 37.5 50C44.6271 50 50 46.8646 50 42.7083V38.5416C50 42.6479 44.7917 45.8333 37.5 45.8333ZM37.5 37.5C30.2083 37.5 25 34.3146 25 30.2083C25 34.3146 19.7917 37.5 12.5 37.5C5.20833 37.5 0 34.3146 0 30.2083V34.375C0 38.5312 5.37292 41.6666 12.5 41.6666C19.6271 41.6666 25 38.5312 25 34.375C25 38.5312 30.3729 41.6666 37.5 41.6666C44.6271 41.6666 50 38.5312 50 34.375V30.2083C50 34.3146 44.7917 37.5 37.5 37.5ZM31.875 8.85414C32.4042 8.85414 32.9333 8.65414 33.3375 8.25205L35.4167 6.2083V14.5833C35.4167 15.7333 36.3479 16.6666 37.5 16.6666C38.6521 16.6666 39.5833 15.7333 39.5833 14.5833V6.22914L41.6729 8.26247C42.4979 9.06455 43.8146 9.0458 44.6187 8.22289C45.4208 7.39789 45.4042 6.07914 44.5771 5.27705L40.4042 1.21247C38.7812 -0.402114 36.1521 -0.402114 34.5458 1.20414L30.4125 5.28539C29.5917 6.09372 29.5854 7.41247 30.3917 8.23122C30.8 8.64372 31.3375 8.84997 31.875 8.84997V8.85414Z" fill="currentColor"/>
</g>
<defs>
<clipPath id="clip0_934_21">
<rect width="50" height="50" fill="currentColor"/>
</clipPath>
</defs>
</svg>
