<svg width="50" height="50" viewBox="0 0 50 50" fill="none" xmlns="http://www.w3.org/2000/svg">
<g clip-path="url(#clip0_945_212)">
<path d="M29.1668 14.5833C29.1668 15.4074 28.9224 16.213 28.4646 16.8982C28.0067 17.5834 27.356 18.1175 26.5946 18.4328C25.8333 18.7482 24.9955 18.8307 24.1873 18.6699C23.379 18.5092 22.6366 18.1123 22.0539 17.5296C21.4711 16.9469 21.0743 16.2045 20.9135 15.3962C20.7527 14.5879 20.8353 13.7502 21.1506 12.9888C21.466 12.2275 22 11.5767 22.6853 11.1189C23.3705 10.661 24.176 10.4167 25.0001 10.4167C26.1052 10.4167 27.165 10.8556 27.9464 11.637C28.7278 12.4184 29.1668 13.4783 29.1668 14.5833ZM35.3293 25.3833L28.9585 31.6979C28.4415 32.2191 27.8266 32.6328 27.149 32.9151C26.4714 33.1973 25.7446 33.3427 25.0105 33.3427C24.2765 33.3427 23.5497 33.1973 22.8721 32.9151C22.1945 32.6328 21.5795 32.2191 21.0626 31.6979L14.696 25.4167C11.9621 22.5982 10.4311 18.8274 10.4264 14.9009C10.4218 10.9744 11.9438 7.19989 14.671 4.37499C16.0113 2.99017 17.6164 1.88902 19.3909 1.13699C21.1653 0.38497 23.0729 -0.00256348 25.0001 -0.00256348C26.9274 -0.00256348 28.8349 0.38497 30.6094 1.13699C32.3838 1.88902 33.989 2.99017 35.3293 4.37499C38.0523 7.19381 39.5743 10.9599 39.5743 14.8792C39.5743 18.7984 38.0523 22.5645 35.3293 25.3833ZM33.3335 14.5833C33.3335 12.9351 32.8447 11.324 31.929 9.95357C31.0134 8.58316 29.7119 7.51506 28.1892 6.88433C26.6664 6.2536 24.9909 6.08857 23.3744 6.41011C21.7579 6.73166 20.273 7.52533 19.1076 8.69077C17.9421 9.8562 17.1485 11.3411 16.8269 12.9576C16.5054 14.5741 16.6704 16.2496 17.3011 17.7724C17.9319 19.2951 19 20.5966 20.3704 21.5122C21.7408 22.4279 23.3519 22.9167 25.0001 22.9167C27.2103 22.9167 29.3299 22.0387 30.8927 20.4759C32.4555 18.9131 33.3335 16.7935 33.3335 14.5833ZM43.2355 19.1667C42.4752 22.6099 40.7696 25.7728 38.3105 28.3L31.898 34.6604C30.9959 35.5648 29.9244 36.2825 28.7447 36.7726C27.5651 37.2627 26.3004 37.5155 25.023 37.5167C23.7463 37.5171 22.482 37.266 21.3024 36.7777C20.1228 36.2894 19.0509 35.5735 18.148 34.6708L11.7668 28.3729C9.34 25.8816 7.6368 22.777 6.83971 19.3917C5.48657 19.8876 4.24934 20.6555 3.20429 21.6479C2.18565 22.6164 1.37591 23.783 0.824876 25.076C0.273844 26.369 -0.00682736 27.7611 0.000126108 29.1667V37.6562C0.00450443 39.909 0.737193 42.1 2.08886 43.9022C3.44052 45.7044 5.33869 47.0213 7.50013 47.6562L13.4793 49.5312C14.4836 49.8438 15.5296 50.0019 16.5814 50C17.5355 49.9988 18.4851 49.8684 19.4043 49.6125L31.446 46.05C32.5186 45.7561 33.6505 45.7561 34.723 46.05L39.696 47.7167C40.9216 48.015 42.1989 48.0312 43.4317 47.764C44.6645 47.4969 45.8206 46.9533 46.8127 46.1744C47.8049 45.3955 48.6073 44.4015 49.1594 43.2673C49.7116 42.1332 49.999 40.8885 50.0001 39.6271V28.9C49.993 26.7829 49.3421 24.7181 48.1339 22.9797C46.9257 21.2412 45.2173 19.9114 43.2355 19.1667Z" fill="currentColor"/>
</g>
<defs>
<clipPath id="clip0_945_212">
<rect width="50" height="50" fill="currentColor"/>
</clipPath>
</defs>
</svg>
