<svg width="50" height="50" viewBox="0 0 50 50" fill="none" xmlns="http://www.w3.org/2000/svg">
<g clip-path="url(#clip0_761_16)">
<path d="M14.5833 0H8.33333C3.7375 0 0 3.7375 0 8.33333V14.5833C0 19.1792 3.7375 22.9167 8.33333 22.9167H14.5833C19.1792 22.9167 22.9167 19.1792 22.9167 14.5833V8.33333C22.9167 3.7375 19.1792 0 14.5833 0ZM14.5833 12.5C14.5833 13.65 13.65 14.5833 12.5 14.5833H10.4167C9.26667 14.5833 8.33333 13.65 8.33333 12.5V10.4167C8.33333 9.26667 9.26667 8.33333 10.4167 8.33333H12.5C13.65 8.33333 14.5833 9.26667 14.5833 10.4167V12.5ZM41.6667 0H35.4167C30.8208 0 27.0833 3.7375 27.0833 8.33333V14.5833C27.0833 19.1792 30.8208 22.9167 35.4167 22.9167H41.6667C46.2625 22.9167 50 19.1792 50 14.5833V8.33333C50 3.7375 46.2625 0 41.6667 0ZM41.6667 12.5C41.6667 13.65 40.7333 14.5833 39.5833 14.5833H37.5C36.35 14.5833 35.4167 13.65 35.4167 12.5V10.4167C35.4167 9.26667 36.35 8.33333 37.5 8.33333H39.5833C40.7333 8.33333 41.6667 9.26667 41.6667 10.4167V12.5ZM14.5833 27.0833H8.33333C3.7375 27.0833 0 30.8208 0 35.4167V41.6667C0 46.2625 3.7375 50 8.33333 50H14.5833C19.1792 50 22.9167 46.2625 22.9167 41.6667V35.4167C22.9167 30.8208 19.1792 27.0833 14.5833 27.0833ZM14.5833 39.5833C14.5833 40.7333 13.65 41.6667 12.5 41.6667H10.4167C9.26667 41.6667 8.33333 40.7333 8.33333 39.5833V37.5C8.33333 36.35 9.26667 35.4167 10.4167 35.4167H12.5C13.65 35.4167 14.5833 36.35 14.5833 37.5V39.5833ZM32.2917 35.4167H30.2083C28.4833 35.4167 27.0833 34.0167 27.0833 32.2917V30.2083C27.0833 28.4833 28.4833 27.0833 30.2083 27.0833H32.2917C34.0167 27.0833 35.4167 28.4833 35.4167 30.2083V32.2917C35.4167 34.0167 34.0167 35.4167 32.2917 35.4167ZM38.5417 41.6667C36.8167 41.6667 35.4167 40.2667 35.4167 38.5417C35.4167 36.8167 36.8167 35.4167 38.5417 35.4167C40.2667 35.4167 41.6667 36.8167 41.6667 38.5417C41.6667 40.2667 40.2667 41.6667 38.5417 41.6667ZM32.2917 50H30.2083C28.4833 50 27.0833 48.6 27.0833 46.875V44.7917C27.0833 43.0667 28.4833 41.6667 30.2083 41.6667H32.2917C34.0167 41.6667 35.4167 43.0667 35.4167 44.7917V46.875C35.4167 48.6 34.0167 50 32.2917 50ZM46.875 35.4167H44.7917C43.0667 35.4167 41.6667 34.0167 41.6667 32.2917V30.2083C41.6667 28.4833 43.0667 27.0833 44.7917 27.0833H46.875C48.6 27.0833 50 28.4833 50 30.2083V32.2917C50 34.0167 48.6 35.4167 46.875 35.4167Z" fill="#ECF7FE"/>
</g>
<defs>
<clipPath id="clip0_761_16">
<rect width="50" height="50" fill="white"/>
</clipPath>
</defs>
</svg>
