<svg width="52" height="52" viewBox="0 0 52 52" fill="none" xmlns="http://www.w3.org/2000/svg">
<g clip-path="url(#clip0_945_163)">
<path d="M17.3333 26C24.5028 26 30.3333 20.1695 30.3333 13C30.3333 5.8305 24.5028 0 17.3333 0C10.1638 0 4.33333 5.8305 4.33333 13C4.33333 20.1695 10.1638 26 17.3333 26ZM47.6667 30.4438V30.3333C47.6667 25.5537 43.7797 21.6667 39 21.6667C34.2203 21.6667 30.3333 25.5537 30.3333 30.3333V30.4438C27.8633 30.9465 26 33.1348 26 35.75V43.3333C26 48.113 29.887 52 34.6667 52H43.3333C48.113 52 52 48.113 52 43.3333V35.75C52 33.1348 50.1367 30.9465 47.6667 30.4438ZM34.6667 30.3333C34.6667 27.9435 36.6102 26 39 26C41.3898 26 43.3333 27.9435 43.3333 30.3333H34.6667ZM21.6667 43.3333C21.6667 46.6657 22.9363 49.6968 25.0033 52H4.33333C1.51883 52 0 49.7683 0 47.6667C0 38.1095 7.77617 30.3333 17.3333 30.3333C19.2465 30.3333 21.0795 30.6562 22.802 31.2303C22.0827 32.5932 21.6667 34.1315 21.6667 35.75V43.3333Z" fill="#ECF7FE"/>
</g>
<defs>
<clipPath id="clip0_945_163">
<rect width="52" height="52" fill="white"/>
</clipPath>
</defs>
</svg>
