<svg width="50" height="50" viewBox="0 0 50 50" fill="none" xmlns="http://www.w3.org/2000/svg">
<g clip-path="url(#clip0_945_165)">
<path d="M47.9167 33.3333C47.5942 33.3333 47.2761 33.2584 46.9875 33.1146L42.8208 31.0312C42.3263 30.7843 41.9502 30.351 41.7751 29.8266C41.6001 29.3023 41.6405 28.7299 41.8875 28.2354C42.1345 27.7409 42.5678 27.3647 43.0921 27.1897C43.6164 27.0147 44.1888 27.0551 44.6833 27.3021L48.85 29.3854C49.2706 29.595 49.6079 29.9406 49.8073 30.3661C50.0066 30.7916 50.0563 31.272 49.9482 31.7293C49.84 32.1866 49.5805 32.5939 49.2117 32.8851C48.843 33.1763 48.3866 33.3342 47.9167 33.3333ZM44.6813 14.375L48.8479 12.2917C49.3424 12.0447 49.7186 11.6114 49.8936 11.087C50.0687 10.5627 50.0282 9.99035 49.7813 9.49583C49.5343 9.00132 49.101 8.62516 48.5766 8.45013C48.0523 8.2751 47.4799 8.31552 46.9854 8.5625L42.8188 10.6458C42.3242 10.8928 41.9481 11.3261 41.7731 11.8504C41.598 12.3748 41.6384 12.9471 41.8854 13.4417C42.1324 13.9362 42.5657 14.3123 43.09 14.4874C43.6144 14.6624 44.1867 14.622 44.6813 14.375ZM50 20.8333C50 20.2808 49.7805 19.7509 49.3898 19.3602C48.9991 18.9695 48.4692 18.75 47.9167 18.75H43.75C43.1975 18.75 42.6676 18.9695 42.2769 19.3602C41.8862 19.7509 41.6667 20.2808 41.6667 20.8333C41.6667 21.3859 41.8862 21.9158 42.2769 22.3065C42.6676 22.6972 43.1975 22.9167 43.75 22.9167H47.9167C48.4692 22.9167 48.9991 22.6972 49.3898 22.3065C49.7805 21.9158 50 21.3859 50 20.8333ZM37.5 39.5833V2.08333C37.5 1.5308 37.2805 1.0009 36.8898 0.610194C36.4991 0.219493 35.9692 0 35.4167 0C34.8641 0 34.3342 0.219493 33.9435 0.610194C33.5528 1.0009 33.3333 1.5308 33.3333 2.08333C33.3333 8.22708 27.9521 10.4167 22.9167 10.4167H8.33333C6.1232 10.4167 4.00358 11.2946 2.44078 12.8574C0.877974 14.4202 0 16.5399 0 18.75L0 22.9167C0 25.1268 0.877974 27.2464 2.44078 28.8092C4.00358 30.372 6.1232 31.25 8.33333 31.25H22.9167C27.9521 31.25 33.3333 33.4396 33.3333 39.5833C33.3333 40.1359 33.5528 40.6658 33.9435 41.0565C34.3342 41.4472 34.8641 41.6667 35.4167 41.6667C35.9692 41.6667 36.4991 41.4472 36.8898 41.0565C37.2805 40.6658 37.5 40.1359 37.5 39.5833ZM17.0542 35.4167H8.33333C7.36336 35.4128 6.39714 35.296 5.45417 35.0687L10.6625 46.6979C11.0999 47.6808 11.8129 48.5158 12.7151 49.1019C13.6173 49.6879 14.67 49.9999 15.7458 50C16.6018 49.9989 17.4438 49.7835 18.1952 49.3736C18.9467 48.9637 19.5835 48.3723 20.0479 47.6532C20.5122 46.9342 20.7892 46.1104 20.8536 45.2569C20.918 44.4033 20.7678 43.5473 20.4167 42.7667L17.0542 35.4167Z" fill="#ECF7FE"/>
</g>
<defs>
<clipPath id="clip0_945_165">
<rect width="50" height="50" fill="white"/>
</clipPath>
</defs>
</svg>
