<svg width="48" height="60" viewBox="0 0 48 60" fill="none" xmlns="http://www.w3.org/2000/svg">
<path d="M26.225 53.7498L1.75 29.2748V34.2748C1.75 35.5998 2.275 36.8748 3.225 37.7998L22.7 57.2748C24.65 59.2248 27.825 59.2248 29.775 57.2748L45.3 41.7498C47.25 39.7998 47.25 36.6248 45.3 34.6748L26.225 53.7498Z" fill="#ECF7FE"/>
<path d="M22.7 44.775C24.65 46.725 27.825 46.725 29.775 44.775L45.3 29.25C47.25 27.3 47.25 24.125 45.3 22.175L25.825 2.7C24.8754 1.77325 23.6019 1.25311 22.275 1.25L6.75 1.25C4 1.25 1.75 3.5 1.75 6.25V21.775C1.75 23.1 2.275 24.375 3.225 25.3L22.7 44.775ZM12.375 8.75C13.2038 8.75 13.9987 9.07924 14.5847 9.66529C15.1708 10.2513 15.5 11.0462 15.5 11.875C15.5 12.7038 15.1708 13.4987 14.5847 14.0847C13.9987 14.6708 13.2038 15 12.375 15C11.5462 15 10.7513 14.6708 10.1653 14.0847C9.57924 13.4987 9.25 12.7038 9.25 11.875C9.25 11.0462 9.57924 10.2513 10.1653 9.66529C10.7513 9.07924 11.5462 8.75 12.375 8.75Z" fill="#ECF7FE"/>
</svg>
