<svg width="60" height="54" viewBox="0 0 60 54" fill="none" xmlns="http://www.w3.org/2000/svg">
<path d="M12.7359 53.0189C11.9206 53.0189 11.2377 52.7427 10.6872 52.1902C10.1367 51.6378 9.86045 50.9549 9.85853 50.1416C9.85661 49.3282 10.1328 48.6453 10.6872 48.0929C11.2416 47.5404 11.9245 47.2642 12.7359 47.2642H47.2642C48.0795 47.2642 48.7633 47.5404 49.3158 48.0929C49.8682 48.6453 50.1435 49.3282 50.1416 50.1416C50.1396 50.9549 49.8634 51.6387 49.3129 52.1931C48.7623 52.7475 48.0795 53.0228 47.2642 53.0189H12.7359ZM14.75 42.9482C13.3593 42.9482 12.1249 42.4926 11.0469 41.5814C9.96883 40.6703 9.30895 39.5193 9.06725 38.1286L6.18989 19.8574C6.09398 19.8574 5.98656 19.8698 5.86763 19.8948C5.7487 19.9197 5.64032 19.9312 5.54249 19.9293C4.34359 19.9293 3.325 19.5102 2.48673 18.6719C1.64846 17.8336 1.22837 16.8141 1.22645 15.6132C1.22453 14.4124 1.64462 13.3938 2.48673 12.5575C3.32884 11.7211 4.34742 11.301 5.54249 11.2972C6.73755 11.2934 7.7571 11.7135 8.60112 12.5575C9.44515 13.4015 9.86428 14.4201 9.85853 15.6132C9.85853 15.9489 9.82208 16.2607 9.74919 16.5484C9.67629 16.8361 9.59285 17.0999 9.49886 17.3397L18.4906 21.368L27.4824 9.06725C26.9548 8.6836 26.5232 8.18007 26.1875 7.55664C25.8519 6.93321 25.684 6.26183 25.684 5.54249C25.684 4.34359 26.1041 3.32404 26.9443 2.48385C27.7845 1.64366 28.8031 1.22453 30 1.22645C31.197 1.22837 32.2166 1.64846 33.0587 2.48673C33.9008 3.325 34.3199 4.34359 34.3161 5.54249C34.3161 6.26183 34.1482 6.93321 33.8125 7.55664C33.4769 8.18007 33.0452 8.6836 32.5177 9.06725L41.5095 21.368L50.5012 17.3397C50.4053 17.0999 50.3209 16.8361 50.248 16.5484C50.1751 16.2607 50.1396 15.9489 50.1416 15.6132C50.1416 14.4143 50.5617 13.3948 51.4018 12.5546C52.242 11.7144 53.2606 11.2953 54.4576 11.2972C55.6546 11.2991 56.6741 11.7192 57.5162 12.5575C58.3583 13.3958 58.7775 14.4143 58.7736 15.6132C58.7698 16.8121 58.3507 17.8317 57.5162 18.6719C56.6818 19.5121 55.6623 19.9312 54.4576 19.9293C54.3617 19.9293 54.2543 19.9178 54.1353 19.8948C54.0164 19.8717 53.908 19.8593 53.8102 19.8574L50.9328 38.1286C50.6931 39.5193 50.0341 40.6703 48.9561 41.5814C47.878 42.4926 46.6427 42.9482 45.25 42.9482H14.75Z" fill="#ECF7FE"/>
</svg>
