<svg width="23" height="23" viewBox="0 0 23 23" fill="none" xmlns="http://www.w3.org/2000/svg">
<g clip-path="url(#clip0_655_104)">
<path d="M-2 15.334H28.6667V23.0007H-2V15.334Z" fill="#1EB53A"/>
<path d="M-2 0H28.6667V7.66667H-2V0Z" fill="#0099B5"/>
<path d="M-2 7.35938H28.6667V15.6394H-2V7.35938Z" fill="#CE1126"/>
<path d="M-2 7.82031H28.6667V15.1803H-2V7.82031Z" fill="white"/>
<path d="M4.43969 6.43992C5.96399 6.43992 7.19969 5.20423 7.19969 3.67992C7.19969 2.15562 5.96399 0.919922 4.43969 0.919922C2.91538 0.919922 1.67969 2.15562 1.67969 3.67992C1.67969 5.20423 2.91538 6.43992 4.43969 6.43992Z" fill="white"/>
<path d="M5.36107 6.43992C6.88538 6.43992 8.12107 5.20423 8.12107 3.67992C8.12107 2.15562 6.88538 0.919922 5.36107 0.919922C3.83677 0.919922 2.60107 2.15562 2.60107 3.67992C2.60107 5.20423 3.83677 6.43992 5.36107 6.43992Z" fill="#0099B5"/>
<path d="M10.5112 5.33789L10.3364 5.86229L10.6032 5.95429" fill="white"/>
<path d="M10.5122 5.33789L10.687 5.86229L10.4202 5.95429" fill="white"/>
<path d="M11.0364 5.71898L10.4837 5.71478L10.4786 5.99695" fill="white"/>
<path d="M11.0373 5.71852L10.5926 6.04681L10.4226 5.8215" fill="white"/>
<path d="M9.98615 5.71852L10.4309 6.04681L10.6008 5.8215" fill="white"/>
<path d="M9.987 5.71898L10.5397 5.71478L10.5448 5.99695" fill="white"/>
<path d="M10.8351 6.33712L10.6683 5.81013L10.3984 5.89252" fill="white"/>
<path d="M10.8353 6.33671L10.3856 6.0152L10.5474 5.78395" fill="white"/>
<path d="M10.1862 6.33671L10.6359 6.0152L10.4741 5.78395" fill="white"/>
<path d="M10.1863 6.33712L10.3532 5.81013L10.6231 5.89252" fill="white"/>
<path d="M10.5112 3.12891L10.3364 3.65331L10.6032 3.74531" fill="white"/>
<path d="M10.5122 3.12891L10.687 3.65331L10.4202 3.74531" fill="white"/>
<path d="M11.0364 3.50999L10.4837 3.5058L10.4786 3.78797" fill="white"/>
<path d="M11.0373 3.50954L10.5926 3.83783L10.4226 3.61252" fill="white"/>
<path d="M9.98615 3.50954L10.4309 3.83783L10.6008 3.61252" fill="white"/>
<path d="M9.987 3.50999L10.5397 3.5058L10.5448 3.78797" fill="white"/>
<path d="M10.8351 4.12814L10.6683 3.60114L10.3984 3.68353" fill="white"/>
<path d="M10.8353 4.12772L10.3856 3.80622L10.5474 3.57497" fill="white"/>
<path d="M10.1862 4.12772L10.6359 3.80622L10.4741 3.57497" fill="white"/>
<path d="M10.1863 4.12814L10.3532 3.60114L10.6231 3.68353" fill="white"/>
<path d="M10.5112 0.921875L10.3364 1.44627L10.6032 1.53828" fill="white"/>
<path d="M10.5122 0.921875L10.687 1.44627L10.4202 1.53828" fill="white"/>
<path d="M11.0364 1.30296L10.4837 1.29877L10.4786 1.58094" fill="white"/>
<path d="M11.0373 1.30251L10.5926 1.6308L10.4226 1.40549" fill="white"/>
<path d="M9.98615 1.30251L10.4309 1.6308L10.6008 1.40549" fill="white"/>
<path d="M9.987 1.30296L10.5397 1.29877L10.5448 1.58094" fill="white"/>
<path d="M10.8351 1.9211L10.6683 1.39411L10.3984 1.4765" fill="white"/>
<path d="M10.8353 1.92069L10.3856 1.59919L10.5474 1.36794" fill="white"/>
<path d="M10.1862 1.92069L10.6359 1.59919L10.4741 1.36794" fill="white"/>
<path d="M10.1863 1.9211L10.3532 1.39411L10.6231 1.4765" fill="white"/>
<path d="M12.7202 5.33789L12.5454 5.86229L12.8122 5.95429" fill="white"/>
<path d="M12.7202 5.33789L12.895 5.86229L12.6282 5.95429" fill="white"/>
<path d="M13.2449 5.71898L12.6922 5.71478L12.6871 5.99695" fill="white"/>
<path d="M13.2453 5.71852L12.8006 6.04681L12.6306 5.8215" fill="white"/>
<path d="M12.1951 5.71852L12.6398 6.04681L12.8098 5.8215" fill="white"/>
<path d="M12.1955 5.71898L12.7482 5.71478L12.7533 5.99695" fill="white"/>
<path d="M13.0441 6.33712L12.8773 5.81013L12.6074 5.89252" fill="white"/>
<path d="M13.0442 6.33671L12.5946 6.0152L12.7564 5.78395" fill="white"/>
<path d="M12.3942 6.33671L12.8439 6.0152L12.6821 5.78395" fill="white"/>
<path d="M12.3948 6.33712L12.5617 5.81013L12.8316 5.89252" fill="white"/>
<path d="M12.7202 3.12891L12.5454 3.65331L12.8122 3.74531" fill="white"/>
<path d="M12.7202 3.12891L12.895 3.65331L12.6282 3.74531" fill="white"/>
<path d="M13.2449 3.50999L12.6922 3.5058L12.6871 3.78797" fill="white"/>
<path d="M13.2453 3.50954L12.8006 3.83783L12.6306 3.61252" fill="white"/>
<path d="M12.1951 3.50954L12.6398 3.83783L12.8098 3.61252" fill="white"/>
<path d="M12.1955 3.50999L12.7482 3.5058L12.7533 3.78797" fill="white"/>
<path d="M13.0441 4.12814L12.8773 3.60114L12.6074 3.68353" fill="white"/>
<path d="M13.0442 4.12772L12.5946 3.80622L12.7564 3.57497" fill="white"/>
<path d="M12.3942 4.12772L12.8439 3.80622L12.6821 3.57497" fill="white"/>
<path d="M12.3948 4.12814L12.5617 3.60114L12.8316 3.68353" fill="white"/>
<path d="M12.7202 0.921875L12.5454 1.44627L12.8122 1.53828" fill="white"/>
<path d="M12.7202 0.921875L12.895 1.44627L12.6282 1.53828" fill="white"/>
<path d="M13.2449 1.30296L12.6922 1.29877L12.6871 1.58094" fill="white"/>
<path d="M13.2453 1.30251L12.8006 1.6308L12.6306 1.40549" fill="white"/>
<path d="M12.1951 1.30251L12.6398 1.6308L12.8098 1.40549" fill="white"/>
<path d="M12.1955 1.30296L12.7482 1.29877L12.7533 1.58094" fill="white"/>
<path d="M13.0441 1.9211L12.8773 1.39411L12.6074 1.4765" fill="white"/>
<path d="M13.0442 1.92069L12.5946 1.59919L12.7564 1.36794" fill="white"/>
<path d="M12.3942 1.92069L12.8439 1.59919L12.6821 1.36794" fill="white"/>
<path d="M12.3948 1.9211L12.5617 1.39411L12.8316 1.4765" fill="white"/>
<path d="M14.9287 5.33789L14.7539 5.86229L15.0207 5.95429" fill="white"/>
<path d="M14.9292 5.33789L15.104 5.86229L14.8372 5.95429" fill="white"/>
<path d="M15.4539 5.71898L14.9012 5.71478L14.8961 5.99695" fill="white"/>
<path d="M15.4543 5.71852L15.0096 6.04681L14.8396 5.8215" fill="white"/>
<path d="M14.4036 5.71852L14.8483 6.04681L15.0183 5.8215" fill="white"/>
<path d="M14.4045 5.71898L14.9572 5.71478L14.9623 5.99695" fill="white"/>
<path d="M15.2526 6.33712L15.0858 5.81013L14.8159 5.89252" fill="white"/>
<path d="M15.2527 6.33671L14.8031 6.0152L14.9649 5.78395" fill="white"/>
<path d="M14.6032 6.33671L15.0529 6.0152L14.8911 5.78395" fill="white"/>
<path d="M14.6038 6.33712L14.7706 5.81013L15.0406 5.89252" fill="white"/>
<path d="M14.9287 3.12891L14.7539 3.65331L15.0207 3.74531" fill="white"/>
<path d="M14.9292 3.12891L15.104 3.65331L14.8372 3.74531" fill="white"/>
<path d="M15.4539 3.50999L14.9012 3.5058L14.8961 3.78797" fill="white"/>
<path d="M15.4543 3.50954L15.0096 3.83783L14.8396 3.61252" fill="white"/>
<path d="M14.4036 3.50954L14.8483 3.83783L15.0183 3.61252" fill="white"/>
<path d="M14.4045 3.50999L14.9572 3.5058L14.9623 3.78797" fill="white"/>
<path d="M15.2526 4.12814L15.0858 3.60114L14.8159 3.68353" fill="white"/>
<path d="M15.2527 4.12772L14.8031 3.80622L14.9649 3.57497" fill="white"/>
<path d="M14.6032 4.12772L15.0529 3.80622L14.8911 3.57497" fill="white"/>
<path d="M14.6038 4.12814L14.7706 3.60114L15.0406 3.68353" fill="white"/>
<path d="M14.9287 0.921875L14.7539 1.44627L15.0207 1.53828" fill="white"/>
<path d="M14.9292 0.921875L15.104 1.44627L14.8372 1.53828" fill="white"/>
<path d="M15.4539 1.30296L14.9012 1.29877L14.8961 1.58094" fill="white"/>
<path d="M15.4543 1.30251L15.0096 1.6308L14.8396 1.40549" fill="white"/>
<path d="M14.4036 1.30251L14.8483 1.6308L15.0183 1.40549" fill="white"/>
<path d="M14.4045 1.30296L14.9572 1.29877L14.9623 1.58094" fill="white"/>
<path d="M15.2526 1.9211L15.0858 1.39411L14.8159 1.4765" fill="white"/>
<path d="M15.2527 1.92069L14.8031 1.59919L14.9649 1.36794" fill="white"/>
<path d="M14.6032 1.92069L15.0529 1.59919L14.8911 1.36794" fill="white"/>
<path d="M14.6038 1.9211L14.7706 1.39411L15.0406 1.4765" fill="white"/>
<path d="M6.09619 5.33789L5.92139 5.86229L6.18819 5.95429" fill="white"/>
<path d="M6.09668 5.33789L6.27148 5.86229L6.00468 5.95429" fill="white"/>
<path d="M6.6214 5.71898L6.06865 5.71478L6.0636 5.99695" fill="white"/>
<path d="M6.62177 5.71852L6.17705 6.04681L6.0071 5.8215" fill="white"/>
<path d="M5.57111 5.71852L6.01582 6.04681L6.18577 5.8215" fill="white"/>
<path d="M5.57147 5.71898L6.12422 5.71478L6.12927 5.99695" fill="white"/>
<path d="M6.41962 6.33712L6.2528 5.81013L5.98288 5.89252" fill="white"/>
<path d="M6.41974 6.33671L5.97009 6.0152L6.13186 5.78395" fill="white"/>
<path d="M5.77069 6.33671L6.22034 6.0152L6.05857 5.78395" fill="white"/>
<path d="M5.77081 6.33712L5.93763 5.81013L6.20755 5.89252" fill="white"/>
<path d="M8.30468 5.33789L8.12988 5.86229L8.39668 5.95429" fill="white"/>
<path d="M8.30518 5.33789L8.47998 5.86229L8.21318 5.95429" fill="white"/>
<path d="M8.8299 5.71898L8.27714 5.71478L8.27209 5.99695" fill="white"/>
<path d="M8.83026 5.71852L8.38554 6.04681L8.2156 5.8215" fill="white"/>
<path d="M7.7796 5.71852L8.22432 6.04681L8.39426 5.8215" fill="white"/>
<path d="M7.77997 5.71898L8.33272 5.71478L8.33777 5.99695" fill="white"/>
<path d="M8.62909 6.33712L8.46227 5.81013L8.19235 5.89252" fill="white"/>
<path d="M8.62921 6.33671L8.17956 6.0152L8.34133 5.78395" fill="white"/>
<path d="M7.97919 6.33671L8.42884 6.0152L8.26707 5.78395" fill="white"/>
<path d="M7.97931 6.33712L8.14613 5.81013L8.41605 5.89252" fill="white"/>
<path d="M8.30468 3.12891L8.12988 3.65331L8.39668 3.74531" fill="white"/>
<path d="M8.30518 3.12891L8.47998 3.65331L8.21318 3.74531" fill="white"/>
<path d="M8.8299 3.50999L8.27714 3.5058L8.27209 3.78797" fill="white"/>
<path d="M8.83026 3.50954L8.38554 3.83783L8.2156 3.61252" fill="white"/>
<path d="M7.7796 3.50954L8.22432 3.83783L8.39426 3.61252" fill="white"/>
<path d="M7.77997 3.50999L8.33272 3.5058L8.33777 3.78797" fill="white"/>
<path d="M8.6286 4.12814L8.46178 3.60114L8.19186 3.68353" fill="white"/>
<path d="M8.62872 4.12772L8.17907 3.80622L8.34084 3.57497" fill="white"/>
<path d="M7.97919 4.12772L8.42884 3.80622L8.26707 3.57497" fill="white"/>
<path d="M7.97931 4.12814L8.14613 3.60114L8.41605 3.68353" fill="white"/>
</g>
<defs>
<clipPath id="clip0_655_104">
<path d="M0 3.83333C0 1.71624 1.71624 0 3.83333 0H19.1667C21.2838 0 23 1.71624 23 3.83333V19.1667C23 21.2838 21.2838 23 19.1667 23H3.83333C1.71624 23 0 21.2838 0 19.1667V3.83333Z" fill="white"/>
</clipPath>
</defs>
</svg>
